<?xml version="1.0" standalone="no"?>
<!DOCTYPE svg PUBLIC "-//W3C//DTD SVG 20010904//EN"
 "http://www.w3.org/TR/2001/REC-SVG-20010904/DTD/svg10.dtd">
<svg version="1.0" xmlns="http://www.w3.org/2000/svg"
 width="152.000000pt" height="100.000000pt" viewBox="0 0 152.000000 100.000000"
 preserveAspectRatio="xMidYMid meet">

<g transform="translate(0.000000,100.000000) scale(0.100000,-0.100000)"
fill="#000000" stroke="none">
<path d="M451 904 c-140 -38 -249 -141 -296 -283 -13 -40 -16 -75 -13 -146 3
-79 8 -101 36 -157 61 -125 192 -222 315 -235 l57 -6 0 50 0 50 -41 7 c-98 16
-194 88 -240 181 -32 67 -34 188 -3 256 73 158 244 230 405 169 99 -36 185
-145 197 -246 l5 -44 54 0 54 0 -7 48 c-15 103 -57 184 -132 254 -108 102
-253 139 -391 102z"/>
</g>
</svg>
